HIERARCHY
ROOT SpineBase
{
  OFFSET 0.000000 0.000000 0.000000
  CHANNELS 6 Xposition Yposition Zposition Zrotation Xrotation Yrotation
  JOINT SpineMid
  {
    OFFSET -0.000000 30.071989 0.000000
    CHANNELS 3 Zrotation Xrotation Yrotation
    JOINT SpineShoulder
    {
      OFFSET -0.157560 22.356301 -0.751814
      CHANNELS 3 Zrotation Xrotation Yrotation
      JOINT Neck
      {
        OFFSET -0.092571 7.418767 -0.564918
        CHANNELS 3 Zrotation Xrotation Yrotation
        JOINT Head
        {
          OFFSET 3.165937 13.295057 -1.324369
          CHANNELS 3 Zrotation Xrotation Yrotation
          End Site
          {
            OFFSET 0 0 0
          }
        }
      }
      JOINT ShoulderLeft
      {
        OFFSET -15.971492 -0.044910 -5.047716
        CHANNELS 3 Zrotation Xrotation Yrotation
        JOINT ElbowLeft
        {
          OFFSET -5.106062 -24.800469 -0.217653
          CHANNELS 3 Zrotation Xrotation Yrotation
          JOINT WristLeft
          {
            OFFSET -1.308258 -24.477398 -5.574571
            CHANNELS 3 Zrotation Xrotation Yrotation
            JOINT HandLeft
            {
              OFFSET 0.509771 -4.938442 0.065346
              CHANNELS 3 Zrotation Xrotation Yrotation
              JOINT HandTipLeft
              {
                OFFSET -1.104493 -6.594189 0.008345
                CHANNELS 3 Zrotation Xrotation Yrotation
                End Site
                {
                  OFFSET 0 0 0
                }
              }
              JOINT ThumbLeft
              {
                OFFSET 2.497532 -1.250652 -2.409179
                CHANNELS 3 Zrotation Xrotation Yrotation
                End Site
                {
                  OFFSET 0 0 0
                }
              }
            }
          }
        }
      }
      JOINT ShoulderRight
      {
        OFFSET 18.177747 -3.702005 3.838584
        CHANNELS 3 Zrotation Xrotation Yrotation
        JOINT ElbowRight
        {
          OFFSET 0.752897 -25.165723 1.416153
          CHANNELS 3 Zrotation Xrotation Yrotation
          JOINT WristRight
          {
            OFFSET 0.472604 -22.836762 -4.100403
            CHANNELS 3 Zrotation Xrotation Yrotation
            JOINT HandRight
            {
              OFFSET -1.378750 -7.269033 0.306644
              CHANNELS 3 Zrotation Xrotation Yrotation
              JOINT HandTipRight
              {
                OFFSET 0.786953 -6.761583 -5.409054
                CHANNELS 3 Zrotation Xrotation Yrotation
                End Site
                {
                  OFFSET 0 0 0
                }
              }
              JOINT ThumbRight
              {
                OFFSET 0.100266 -2.072668 -0.896628
                CHANNELS 3 Zrotation Xrotation Yrotation
                End Site
                {
                  OFFSET 0 0 0
                }
              }
            }
          }
        }
      }
    }
  }
  JOINT HipLeft
  {
    OFFSET -7.929911 1.412042 -5.083083
    CHANNELS 3 Zrotation Xrotation Yrotation
    JOINT KneeLeft
    {
      OFFSET -5.938811 -29.560463 3.344063
      CHANNELS 3 Zrotation Xrotation Yrotation
      JOINT AnkleLeft
      {
        OFFSET 2.227439 -34.244322 9.774774
        CHANNELS 3 Zrotation Xrotation Yrotation
        JOINT FootLeft
        {
          OFFSET 2.706955 -4.023122 -13.058704
          CHANNELS 3 Zrotation Xrotation Yrotation
          End Site
          {
            OFFSET 0 0 0
          }
        }
      }
    }
  }
  JOINT HipRight
  {
    OFFSET 7.022391 0.463398 -1.361876
    CHANNELS 3 Zrotation Xrotation Yrotation
    JOINT KneeRight
    {
      OFFSET -2.846696 -30.775981 2.589414
      CHANNELS 3 Zrotation Xrotation Yrotation
      JOINT AnkleRight
      {
        OFFSET -6.216329 -32.206563 7.295827
        CHANNELS 3 Zrotation Xrotation Yrotation
        JOINT FootRight
        {
          OFFSET 1.886798 -3.789569 -12.625210
          CHANNELS 3 Zrotation Xrotation Yrotation
          End Site
          {
            OFFSET 0 0 0
          }
        }
      }
    }
  }
}
MOTION
Frames: 9
Frame Time: 0.033333
61.541044 70.572221 348.008458 -9.952490 -1.780900 12.455718 0.011958 0.170119 -12.943547 0.252377 0.129830 -0.405676 18.627610 -4.110233 3.124614 0.000000 0.000000 0.000000 4.764754 -3.377505 1.600127 -8.901166 3.313883 3.002384 6.757928 17.426339 -0.624350 6.770615 -10.992287 -1.595093 0.000000 0.000000 0.000000 0.000000 0.000000 0.000000 67.434555 47.869457 -22.974213 -7.600909 12.790012 -17.473558 4.366385 23.936367 -24.312033 -6.926084 -42.787906 12.953029 0.000000 0.000000 0.000000 0.000000 0.000000 0.000000 3.934486 1.437723 -13.332871 -6.978934 -7.734333 -4.401969 5.228959 7.776240 29.997209 0.000000 0.000000 0.000000 20.680634 6.878698 -13.318513 3.188601 -3.733945 2.451810 -19.123625 -4.608317 21.060342 0.000000 0.000000 0.000000
61.985227 70.598778 347.543160 -9.991696 -1.793391 12.521369 0.009981 0.151971 -13.013936 0.251236 0.118327 -0.408652 18.800651 -3.732714 3.027983 0.000000 0.000000 0.000000 4.523079 -3.768482 1.669539 -8.791182 3.878422 3.049107 5.265709 16.014428 -0.656194 9.738750 -9.690250 -1.002116 0.000000 0.000000 0.000000 0.000000 0.000000 0.000000 65.419252 47.090346 -21.531432 -6.035492 12.890912 -16.788063 3.766049 26.043813 -26.153731 -7.886338 -41.953028 12.948730 0.000000 0.000000 0.000000 0.000000 0.000000 0.000000 3.547133 1.387619 -13.415857 -6.935785 -7.441867 -4.463409 5.536903 7.617351 30.284835 0.000000 0.000000 0.000000 20.539343 6.598153 -13.330809 3.148479 -3.680867 2.420312 -19.011987 -4.399897 21.319268 0.000000 0.000000 0.000000
62.313335 70.569871 347.161323 -9.987360 -1.825384 12.699033 0.012512 0.139999 -13.195375 0.253568 0.112918 -0.408974 18.646249 -3.713174 3.006949 0.000000 0.000000 0.000000 4.190200 -4.084170 1.722631 -8.459108 4.025714 3.014589 4.297511 14.044641 -0.953245 10.397641 -7.153425 -0.947112 0.000000 0.000000 0.000000 0.000000 0.000000 0.000000 63.053116 44.966425 -19.271907 -4.387485 14.514353 -16.719753 4.395599 28.573283 -27.980471 -6.678909 -40.277403 13.808573 0.000000 0.000000 0.000000 0.000000 0.000000 0.000000 3.843318 0.877724 -13.491718 -7.645507 -7.283752 -4.673358 5.777955 7.947256 30.434799 0.000000 0.000000 0.000000 20.406874 6.353528 -13.467662 3.089177 -3.691510 2.401495 -18.857055 -4.172428 21.426840 0.000000 0.000000 0.000000
62.605316 70.532441 346.776772 -9.991324 -1.853782 12.790640 0.023232 0.135200 -13.289880 0.261999 0.112823 -0.408390 18.637363 -3.747428 3.020375 0.000000 0.000000 0.000000 3.738374 -4.483706 1.781320 -7.999562 4.446772 2.980306 3.048350 11.793006 -1.268410 10.670477 -4.277695 -1.000872 0.000000 0.000000 0.000000 0.000000 0.000000 0.000000 61.048337 41.953174 -16.847640 -0.737614 15.651471 -16.671766 0.671103 32.878960 -33.773423 2.292945 -40.636135 20.846257 0.000000 0.000000 0.000000 0.000000 0.000000 0.000000 4.018239 0.646694 -13.533559 -8.294030 -7.268355 -4.882962 6.165031 8.182454 30.558867 0.000000 0.000000 0.000000 20.275098 6.200933 -13.535659 3.074427 -3.803027 2.420980 -18.720090 -3.896616 21.486844 0.000000 0.000000 0.000000
62.861281 70.493004 346.404983 -10.056385 -1.893985 12.559762 0.027681 0.128748 -13.066401 0.269407 0.109830 -0.411035 19.078590 -3.656206 3.048091 0.000000 0.000000 0.000000 3.448669 -4.957369 1.858086 -7.825712 4.540124 2.983503 2.675262 9.329130 -1.851038 10.405058 -1.780645 -0.896447 0.000000 0.000000 0.000000 0.000000 0.000000 0.000000 59.513683 38.166996 -14.380509 3.589708 18.226894 -17.744096 -8.017864 39.939482 -44.485185 22.882716 -38.643048 38.109962 0.000000 0.000000 0.000000 0.000000 0.000000 0.000000 3.993580 0.405776 -13.266441 -8.595157 -7.074703 -5.012072 6.524711 8.346316 30.438526 0.000000 0.000000 0.000000 20.127985 6.279183 -13.325515 3.240006 -4.016081 2.511726 -18.630404 -3.593896 21.317946 0.000000 0.000000 0.000000
63.089326 70.436715 346.038141 -10.094376 -1.914780 12.107354 0.036777 0.128831 -12.617501 0.274369 0.110197 -0.412018 19.470812 -3.633416 3.090297 0.000000 0.000000 0.000000 3.116527 -5.681057 1.960995 -7.898060 4.277378 3.031504 3.891256 8.410779 -2.395730 8.602127 -0.689136 -0.825647 0.000000 0.000000 0.000000 0.000000 0.000000 0.000000 59.305844 35.168895 -12.879122 8.081088 18.642190 -18.644114 -71.343524 57.696398 -55.898157 68.606223 15.949526 59.614487 0.000000 0.000000 0.000000 0.000000 0.000000 0.000000 3.794204 -0.160943 -12.733628 -8.682356 -6.641824 -5.100496 6.776724 8.630360 30.147940 0.000000 0.000000 0.000000 19.817668 6.546686 -12.925683 3.647728 -4.337178 2.686808 -18.604435 -3.252051 20.983622 0.000000 0.000000 0.000000
63.315173 70.380214 345.662452 -10.065832 -1.883040 11.587310 0.038251 0.121790 -12.093586 0.278122 0.105171 -0.410733 19.773560 -3.735569 3.162771 0.000000 0.000000 0.000000 2.947093 -6.367005 2.050742 -7.977611 3.756893 3.010564 4.044628 8.379514 -2.686058 8.710741 1.716970 -0.925225 0.000000 0.000000 0.000000 0.000000 0.000000 0.000000 60.064166 32.886806 -12.039013 11.680601 17.579239 -19.215855 -162.484978 6.002454 -75.641900 171.825607 45.034194 -83.533945 0.000000 0.000000 0.000000 0.000000 0.000000 0.000000 3.274255 -1.236821 -12.076467 -8.325764 -5.745036 -5.084276 6.770111 8.951160 29.706024 0.000000 0.000000 0.000000 19.258555 6.776954 -12.441201 4.250365 -4.570597 2.880200 -18.594393 -2.924999 20.547447 0.000000 0.000000 0.000000
63.503888 70.326907 345.303843 -10.019855 -1.821730 10.930745 0.034240 0.111230 -11.430013 0.280902 0.098075 -0.408978 19.933412 -3.803271 3.205319 0.000000 0.000000 0.000000 2.829307 -6.920278 2.117083 -8.284533 2.811593 3.026607 3.347224 9.635778 -2.701719 10.009628 1.541942 -0.793590 0.000000 0.000000 0.000000 0.000000 0.000000 0.000000 61.214244 30.791740 -11.362675 13.774452 15.274563 -19.121699 -175.259848 -13.302922 -87.295451 169.247755 34.571797 -104.280906 0.000000 0.000000 0.000000 0.000000 0.000000 0.000000 2.837167 -2.050005 -11.327072 -7.963718 -5.280980 -5.094519 6.734048 9.405775 29.238548 0.000000 0.000000 0.000000 18.698940 7.051239 -11.819915 4.842057 -4.868214 3.093153 -18.596181 -2.564707 20.079794 0.000000 0.000000 0.000000
63.663515 70.287547 344.957667 -9.950220 -1.728718 10.294777 0.025808 0.095174 -10.783594 0.282357 0.085777 -0.406766 20.076440 -3.834098 3.233527 0.000000 0.000000 0.000000 2.764106 -7.225376 2.144788 -8.602175 1.534958 3.015931 2.849017 12.135433 -2.426707 11.856097 0.542376 -0.737769 0.000000 0.000000 0.000000 0.000000 0.000000 0.000000 62.671581 29.335792 -11.033647 14.427519 12.741346 -18.666761 -179.009841 -19.878782 -88.292455 168.659914 32.425841 -109.120011 0.000000 0.000000 0.000000 0.000000 0.000000 0.000000 2.591997 -2.634971 -10.621521 -7.884526 -5.100347 -5.158559 6.809297 9.854253 28.858310 0.000000 0.000000 0.000000 18.264189 7.304595 -11.208583 5.156740 -5.311668 3.276001 -18.479465 -2.126510 19.704187 0.000000 0.000000 0.000000
